<svg xmlns="http://www.w3.org/2000/svg" viewBox="0 0 512 512" width="512" height="512">
  <rect width="512" height="512" rx="96" fill="#0f766e" />
  <path
    d="M256 120c-18 0-32 16-32 40s14 40 32 40 32-16 32-40-14-40-32-40zM168 168c-16 0-28 16-28 38s12 38 28 38 28-16 28-38-12-38-28-38zm176 0c-16 0-28 16-28 38s12 38 28 38 28-16 28-38-12-38-28-38zM120 268c-15 0-26 14-26 34s11 34 26 34 26-14 26-34-11-34-26-34zm272 0c-15 0-26 14-26 34s11 34 26 34 26-14 26-34-11-34-26-34zM256 252c-44 0-84 44-100 92-9 27 11 52 39 52 18 0 38-10 61-10s43 10 61 10c28 0 48-25 39-52-16-48-56-92-100-92z"
    fill="#ffffff"
  />
</svg>
